<svg width="40" height="40" viewBox="0 0 40 40" fill="none" xmlns="http://www.w3.org/2000/svg">
<path d="M20 26.6668C23.6819 26.6668 26.6667 23.6821 26.6667 20.0002C26.6667 16.3183 23.6819 13.3335 20 13.3335C16.3181 13.3335 13.3333 16.3183 13.3333 20.0002C13.3333 23.6821 16.3181 26.6668 20 26.6668Z" stroke="#0F5CFF" stroke-width="4" stroke-linecap="round" stroke-linejoin="round"/>
<path d="M26.6667 13.3335V21.6668C26.6667 22.9929 27.1934 24.2647 28.1311 25.2024C29.0688 26.1401 30.3406 26.6668 31.6667 26.6668C32.9927 26.6668 34.2645 26.1401 35.2022 25.2024C36.1399 24.2647 36.6667 22.9929 36.6667 21.6668V20.0002C36.6667 16.2457 35.399 12.6012 33.069 9.65712C30.739 6.71307 27.4833 4.64197 23.8292 3.77936C20.1752 2.91676 16.3369 3.31319 12.9363 4.90443C9.53566 6.49567 6.77194 9.1885 5.09288 12.5466C3.41382 15.9047 2.91779 19.7314 3.68517 23.4066C4.45254 27.0819 6.43836 30.3904 9.32088 32.796C12.2034 35.2017 15.8137 36.5637 19.567 36.6612C23.3202 36.7588 26.9964 35.5862 30 33.3335" stroke="#0F5CFF" stroke-width="4" stroke-linecap="round" stroke-linejoin="round"/>
</svg>
