<svg width="40" height="40" viewBox="0 0 40 40" fill="none" xmlns="http://www.w3.org/2000/svg">
<path d="M29.1667 14.9985C27.6746 14.9979 26.2056 15.3669 24.891 16.0727C24.771 15.7568 24.5578 15.4848 24.2795 15.2929C24.0013 15.101 23.6713 14.9984 23.3333 14.9985H16.6667C16.4478 14.9984 16.231 15.0414 16.0287 15.1251C15.8265 15.2088 15.6427 15.3316 15.4879 15.4864C15.3331 15.6412 15.2103 15.825 15.1266 16.0272C15.0429 16.2295 14.9999 16.4463 15 16.6652V36.6652C14.9999 36.8841 15.0429 37.1009 15.1266 37.3031C15.2103 37.5054 15.3331 37.6892 15.4879 37.844C15.6427 37.9988 15.8265 38.1215 16.0287 38.2052C16.231 38.2889 16.4478 38.332 16.6667 38.3318H23.3333C23.5523 38.332 23.769 38.2889 23.9713 38.2052C24.1736 38.1215 24.3574 37.9988 24.5121 37.844C24.6669 37.6892 24.7897 37.5054 24.8734 37.3031C24.9571 37.1009 25.0001 36.8841 25 36.6652V27.4985C25 27.0565 25.1756 26.6326 25.4882 26.32C25.8007 26.0074 26.2247 25.8318 26.6667 25.8318C27.1087 25.8318 27.5326 26.0074 27.8452 26.32C28.1578 26.6326 28.3333 27.0565 28.3333 27.4985V36.6652C28.3332 36.8841 28.3762 37.1009 28.46 37.3031C28.5437 37.5054 28.6664 37.6892 28.8212 37.844C28.976 37.9988 29.1598 38.1215 29.3621 38.2052C29.5643 38.2889 29.7811 38.332 30 38.3318H36.6667C36.8856 38.332 37.1024 38.2889 37.3046 38.2052C37.5069 38.1215 37.6907 37.9988 37.8455 37.844C38.0003 37.6892 38.123 37.5054 38.2067 37.3031C38.2905 37.1009 38.3335 36.8841 38.3333 36.6652V24.1652C38.3303 21.7349 37.3636 19.4051 35.6452 17.6867C33.9267 15.9683 31.5969 15.0015 29.1667 14.9985ZM35 34.9985H31.6667V27.4985C31.6667 26.1724 31.1399 24.9007 30.2022 23.963C29.2645 23.0253 27.9928 22.4985 26.6667 22.4985C25.3406 22.4985 24.0688 23.0253 23.1311 23.963C22.1935 24.9007 21.6667 26.1724 21.6667 27.4985V34.9985H18.3333V18.3318H21.6667V19.5037C21.6669 19.8491 21.7743 20.1858 21.9741 20.4675C22.1739 20.7491 22.4562 20.9618 22.7821 21.0762C23.1079 21.1905 23.4612 21.2008 23.7932 21.1058C24.1252 21.0107 24.4195 20.8149 24.6354 20.5454C25.3834 19.5954 26.4093 18.9028 27.57 18.5641C28.7307 18.2255 29.9681 18.2577 31.1096 18.6564C32.251 19.055 33.2395 19.8002 33.937 20.7878C34.6344 21.7754 35.0061 22.9561 35 24.1652V34.9985ZM11.6667 14.9985H5.00001C4.78111 14.9984 4.56433 15.0414 4.36206 15.1251C4.15979 15.2088 3.97601 15.3316 3.82122 15.4864C3.66643 15.6412 3.54367 15.825 3.45996 16.0272C3.37625 16.2295 3.33322 16.4463 3.33335 16.6652V36.6652C3.33322 36.8841 3.37624 37.1009 3.45995 37.3031C3.54367 37.5054 3.66643 37.6892 3.82122 37.844C3.97601 37.9988 4.15979 38.1215 4.36206 38.2052C4.56432 38.2889 4.78111 38.332 5.00001 38.3318H11.6667C11.8856 38.332 12.1024 38.2889 12.3046 38.2052C12.5069 38.1215 12.6907 37.9988 12.8455 37.844C13.0003 37.6892 13.123 37.5054 13.2067 37.3031C13.2905 37.1009 13.3335 36.8841 13.3333 36.6652V16.6652C13.3335 16.4463 13.2904 16.2295 13.2067 16.0272C13.123 15.825 13.0003 15.6412 12.8455 15.4864C12.6907 15.3316 12.5069 15.2088 12.3046 15.1251C12.1024 15.0414 11.8856 14.9984 11.6667 14.9985ZM10 34.9985H6.66668V18.3318H10V34.9985ZM8.35776 2.57017C7.62836 2.52651 6.89771 2.63167 6.21022 2.87925C5.52274 3.12683 4.8928 3.51166 4.35871 4.01033C3.82462 4.509 3.39754 5.1111 3.10344 5.78001C2.80935 6.44891 2.65438 7.17065 2.64797 7.90133C2.64156 8.632 2.78384 9.35635 3.06615 10.0303C3.34847 10.7043 3.76492 11.3138 4.29018 11.8217C4.81543 12.3297 5.43853 12.7255 6.12156 12.9851C6.80459 13.2447 7.53329 13.3627 8.26335 13.3318H8.31055C9.04187 13.3753 9.77438 13.2691 10.4633 13.0199C11.1522 12.7707 11.7831 12.3836 12.3174 11.8824C12.8517 11.3811 13.2781 10.7761 13.5707 10.1045C13.8633 9.43281 14.0158 8.70855 14.019 7.97594C14.0223 7.24333 13.8761 6.51776 13.5894 5.84356C13.3027 5.16936 12.8816 4.56069 12.3517 4.05475C11.8219 3.54881 11.1944 3.15621 10.5077 2.90096C9.82097 2.64571 9.08944 2.53315 8.35776 2.57017ZM8.31056 9.99851H8.26335C7.97512 10.0335 7.68275 10.0065 7.40583 9.91922C7.12891 9.83197 6.87385 9.68652 6.65775 9.49261C6.44165 9.29871 6.26951 9.06085 6.15287 8.79497C6.03623 8.52909 5.97779 8.24134 5.98146 7.95102C5.98146 6.70752 6.91408 5.90349 8.35776 5.90349C8.64893 5.86468 8.94503 5.88871 9.22612 5.97396C9.50722 6.05922 9.76678 6.20373 9.98732 6.39775C10.2079 6.59176 10.3843 6.83079 10.5047 7.09873C10.625 7.36666 10.6866 7.65729 10.6852 7.95102C10.6852 9.19451 9.75261 9.99851 8.31056 9.99851Z" fill="#0F5CFF"/>
</svg>
