<svg width="14" height="14" viewBox="0 0 14 14" fill="none" xmlns="http://www.w3.org/2000/svg">
<path d="M7 9.91667C7.32217 9.91667 7.58333 9.6555 7.58333 9.33333C7.58333 9.01117 7.32217 8.75 7 8.75C6.67783 8.75 6.41667 9.01117 6.41667 9.33333C6.41667 9.6555 6.67783 9.91667 7 9.91667Z" stroke="#188800" stroke-width="1.5" stroke-linecap="round" stroke-linejoin="round"/>
<path d="M11.0833 5.83337H2.91667C2.27233 5.83337 1.75 6.35571 1.75 7.00004V11.6667C1.75 12.311 2.27233 12.8334 2.91667 12.8334H11.0833C11.7277 12.8334 12.25 12.311 12.25 11.6667V7.00004C12.25 6.35571 11.7277 5.83337 11.0833 5.83337Z" stroke="#188800" stroke-width="1.5" stroke-linecap="round" stroke-linejoin="round"/>
<path d="M4.08333 5.83329V4.08329C4.08333 3.30974 4.39062 2.56788 4.93761 2.0209C5.48459 1.47392 6.22645 1.16663 7 1.16663C7.77355 1.16663 8.51541 1.47392 9.0624 2.0209C9.60938 2.56788 9.91667 3.30974 9.91667 4.08329V5.83329" stroke="#188800" stroke-width="1.5" stroke-linecap="round" stroke-linejoin="round"/>
</svg>
